# Blender v2.93.3 OBJ File: 'retopobunny.blend'
# www.blender.org
mtllib LowPolyBunny.mtl
o bunny.001_Cube.002
v -0.351799 2.606242 0.363776
v -0.998887 2.557118 0.380661
v -0.244728 1.929442 0.541477
v -1.025964 2.112521 0.475903
v -0.479620 0.627730 0.583508
v 1.496165 1.396740 0.207534
v 1.269945 0.174382 0.556868
v 1.255923 0.159224 0.090628
v 1.549495 1.110601 0.224583
v 0.520235 1.770641 0.492053
v -0.212760 2.897235 0.460848
v -0.595017 3.101889 0.392102
v -0.323743 2.796049 0.391821
v -0.757027 2.903012 0.299277
v -0.601438 2.564486 0.439449
v -0.533968 1.976160 0.566008
v 0.000898 0.466712 0.643702
v 0.032344 0.436560 0.543722
v -0.409770 3.027595 0.219479
v 0.012206 3.405619 0.317572
v -0.533788 2.821484 0.373155
v -0.944193 0.145783 0.357681
v -0.334255 0.249344 0.647480
v -0.378504 0.239479 0.138603
v -0.944193 0.145783 0.262619
v -0.875207 0.145783 0.130373
v -0.801982 0.178279 0.652383
v -0.876545 0.145783 0.502856
v 0.526931 0.367237 0.681278
v 0.526813 0.367237 0.531321
v -0.363530 2.794071 0.064145
v -0.224729 2.975412 0.120531
v 0.812321 0.403926 0.750144
v -0.023364 3.452016 0.274073
v -0.087359 3.477866 0.283232
v 0.031026 3.430796 0.262321
v 0.185126 0.196740 0.636741
v 0.245373 0.298922 0.223258
v 0.245373 0.298922 0.071104
v 0.245373 0.298922 0.502102
v 0.185126 0.238994 0.223371
v 0.766006 0.171123 0.672355
v 0.897992 0.118080 0.039533
v 0.522510 0.367237 0.206317
v -0.876545 0.145783 0.253516
v -0.944193 0.023838 0.243980
v -0.944193 0.023838 0.143616
v -0.852136 0.599733 0.323918
v -0.000417 0.470418 0.232836
v -0.789353 2.967764 0.065124
v -0.627524 3.157135 0.183481
v -0.070001 3.430911 0.370750
v -0.025098 3.412467 0.366181
v 1.569983 0.659271 0.488802
v -1.067945 2.821336 0.177485
v 1.492758 0.303793 0.563467
v 0.452925 0.824107 0.691189
v -1.379251 1.670355 0.282225
v -0.053587 0.863951 0.724181
v 0.762830 0.720339 0.746168
v -1.383305 2.750059 0.190598
v -1.435916 2.137882 0.304054
v -0.553718 0.389829 0.603890
v -0.177126 0.333666 0.126014
v -0.045473 0.278947 0.515651
v -0.125680 0.337355 0.635437
v -0.052051 0.278825 0.352284
v -0.821652 0.378579 0.298527
v -0.676149 0.385247 0.051415
v -0.000417 0.470418 0.381967
v -0.944193 0.145783 0.243980
v -0.944193 0.145783 0.143616
v -0.876545 0.145783 0.371377
v 0.527104 0.367237 0.364276
v 0.245373 0.298922 0.358665
v -0.046023 0.276937 0.436362
v 1.010864 0.038227 0.237543
v 0.989417 0.038227 0.457479
v 0.773996 0.036095 0.160485
v 0.181047 0.036095 0.636741
v 0.748482 0.036095 0.590776
v 0.185126 0.238994 0.502009
v 0.185126 0.238994 0.359335
v 0.266574 0.036095 0.502009
v 0.185126 0.196740 0.086541
v 0.181047 0.036095 0.086541
v 0.246539 0.036095 0.359335
v 0.259826 0.036095 0.223371
v -0.157991 0.043022 0.529265
v -0.367697 0.043022 0.523997
v -0.360530 0.043022 0.196249
v -0.367106 0.043022 0.641093
v -0.366525 0.043022 0.407175
v -0.876545 0.043022 0.502856
v -0.876545 0.043022 0.371377
v -0.157495 0.043022 0.318610
v -0.365774 0.043022 0.296166
v -0.876545 0.043022 0.253516
v -0.154783 0.043022 0.231510
v -0.169038 0.043022 0.631281
v -0.158966 0.043022 0.422999
v -0.944193 0.023838 0.357681
v -0.944193 0.023838 0.262619
v -0.944193 0.023838 0.479417
v -0.944193 0.145783 0.479417
v -0.944193 0.145783 0.385190
v -0.944193 0.023838 0.385190
v -0.944193 0.145783 0.618814
v -0.944193 0.023838 0.618814
v -0.944193 0.023838 0.526857
v -0.944193 0.145783 0.526857
v -0.558994 0.989102 0.660222
v -1.101519 0.900304 0.281844
v 0.090010 0.036095 0.636759
v 0.095174 0.197526 0.636759
v 0.106368 0.239781 0.513445
v 0.097859 0.036095 0.513445
v 0.097901 0.239781 0.369343
v 0.097901 0.239781 0.491319
v 0.093822 0.036095 0.491319
v 0.093822 0.036095 0.369343
v 0.098055 0.036095 0.352779
v 0.102135 0.239781 0.352779
v 0.102135 0.239781 0.232541
v 0.098055 0.036095 0.232541
v 0.099126 0.036095 0.086541
v 0.103205 0.197526 0.086541
v 0.103205 0.239781 0.213836
v 0.099126 0.036095 0.213836
v 1.661320 1.673124 0.181525
v -0.397498 3.068779 0.133213
v -0.579628 2.882217 0.064641
v 1.797351 1.725971 0.176836
v 1.749199 1.160649 0.214078
v 1.993178 1.406344 0.304332
v 1.918654 1.676083 0.227395
v 1.773631 1.402796 0.283454
v 1.748895 1.606645 0.263073
v 1.951855 1.210868 0.191951
v 1.200328 1.530058 0.374101
v -0.914301 1.549376 0.531718
v 0.737289 1.196342 0.639816
v 0.185527 1.297460 0.683556
v -0.315466 1.402874 0.663058
v 1.554312 1.028012 0.441196
v -1.431624 2.508156 0.279077
v -0.860830 0.043022 0.145821
v -0.857978 0.043022 0.635017
v 0.362441 0.036095 0.623263
v 0.297247 0.159879 0.080042
v 0.316831 0.187113 0.643823
v 0.245373 0.298922 0.639638
v 0.345143 0.036095 0.097883
v 0.578403 0.036095 0.605089
v 0.311411 0.036095 0.357688
v 0.586573 0.036095 0.356465
v -0.351799 2.606242 -0.363775
v -1.544047 1.712263 0.000000
v -1.509819 2.718593 0.000000
v -0.481961 2.626843 0.000000
v -0.998887 2.557118 -0.380660
v -1.096495 2.899941 0.000000
v -0.244728 1.929442 -0.541476
v -1.714203 2.199149 0.000000
v -1.025964 2.112521 -0.475902
v -0.479620 0.627730 -0.583508
v 1.658322 0.995255 0.000000
v 1.496165 1.396740 -0.207533
v 1.269945 0.174382 -0.556867
v 1.255923 0.159224 -0.090627
v 1.549495 1.110601 -0.224582
v 0.520235 1.770641 -0.492053
v 0.473017 2.059973 0.000000
v -0.212760 2.897235 -0.460848
v -0.595017 3.101889 -0.392101
v -0.323743 2.796049 -0.391820
v -0.757027 2.903012 -0.299276
v -0.767212 2.942472 0.000000
v -0.601438 2.564486 -0.439449
v -0.533968 1.976160 -0.566007
v 0.000898 0.466712 -0.643701
v -0.073138 0.455982 0.000000
v 0.032344 0.436560 -0.543721
v -0.536863 2.771945 0.000000
v -0.409770 3.027595 -0.219479
v 0.012206 3.405619 -0.317572
v -0.533788 2.821484 -0.373154
v -0.917687 0.614985 0.000000
v -0.944193 0.145783 -0.357680
v -0.334255 0.249344 -0.647479
v -0.378504 0.239479 -0.138603
v -0.944193 0.145783 -0.262619
v -0.875207 0.145783 -0.130372
v -0.801982 0.178279 -0.652382
v -0.876545 0.145783 -0.502855
v 0.516047 0.367237 0.000000
v -0.034914 2.176665 0.000000
v 0.526931 0.367237 -0.681277
v 0.526813 0.367237 -0.531320
v -0.363530 2.794071 -0.064144
v -0.224729 2.975412 -0.120531
v 0.812321 0.403926 -0.750144
v -0.023364 3.452016 -0.274072
v -0.087359 3.477866 -0.283232
v 0.031026 3.430796 -0.262320
v 0.185126 0.196740 -0.636740
v 0.245373 0.298922 -0.223258
v 0.245373 0.298922 -0.071103
v 0.245373 0.298922 -0.502101
v 0.185126 0.238994 -0.223370
v 0.766006 0.171123 -0.672354
v 0.897992 0.118080 -0.039532
v 0.522510 0.367237 -0.206316
v -0.876545 0.145783 -0.253515
v -0.944193 0.023838 -0.243979
v -0.944193 0.023838 -0.143615
v -0.852136 0.599733 -0.323917
v -0.000417 0.470418 -0.232835
v -0.789353 2.967764 -0.065123
v -0.627524 3.157135 -0.183480
v -0.070001 3.430911 -0.370749
v -0.025098 3.412467 -0.366180
v 1.569983 0.659271 -0.488801
v -1.067945 2.821336 -0.177485
v 1.492758 0.303793 -0.563467
v 0.452925 0.824107 -0.691188
v -1.379251 1.670355 -0.282224
v -0.053587 0.863951 -0.724181
v 0.762830 0.720339 -0.746168
v -1.383305 2.750059 -0.190597
v -1.435916 2.137882 -0.304054
v 1.548235 0.605448 0.000000
v -0.553718 0.389829 -0.603890
v -0.177126 0.333666 -0.126013
v -0.045473 0.278947 -0.515650
v -0.125680 0.337355 -0.635436
v -0.052051 0.278825 -0.352284
v -0.821652 0.378579 -0.298526
v -0.676149 0.385247 -0.051414
v 0.987383 0.236224 0.000000
v 0.782533 0.318158 0.000000
v -0.000417 0.470418 -0.381966
v -0.944193 0.145783 -0.243979
v -0.944193 0.145783 -0.143615
v -0.876545 0.145783 -0.371377
v 0.527104 0.367237 -0.364275
v 0.245373 0.298922 -0.358664
v -0.046023 0.276937 -0.436361
v 1.010864 0.038227 -0.237543
v 0.989417 0.038227 -0.457478
v 0.773996 0.036095 -0.160484
v 0.181047 0.036095 -0.636740
v 0.748482 0.036095 -0.590775
v 0.185126 0.238994 -0.502009
v 0.185126 0.238994 -0.359334
v 0.266574 0.036095 -0.502009
v 0.185126 0.196740 -0.086540
v 0.181047 0.036095 -0.086540
v 0.246539 0.036095 -0.359334
v 0.259826 0.036095 -0.223370
v -0.157991 0.043022 -0.529265
v -0.367697 0.043022 -0.523996
v -0.360530 0.043022 -0.196248
v -0.367106 0.043022 -0.641092
v -0.366525 0.043022 -0.407174
v -0.876545 0.043022 -0.502855
v -0.876545 0.043022 -0.371377
v -0.157495 0.043022 -0.318609
v -0.365774 0.043022 -0.296165
v -0.876545 0.043022 -0.253515
v -0.154783 0.043022 -0.231509
v -0.169038 0.043022 -0.631280
v -0.158966 0.043022 -0.422998
v -0.944193 0.023838 -0.357680
v -0.944193 0.023838 -0.262619
v -0.944193 0.023838 -0.479417
v -0.944193 0.145783 -0.479417
v -0.944193 0.145783 -0.385189
v -0.944193 0.023838 -0.385189
v -0.944193 0.145783 -0.618813
v -0.944193 0.023838 -0.618813
v -0.944193 0.023838 -0.526857
v -0.944193 0.145783 -0.526857
v -0.558994 0.989102 -0.660221
v -1.101519 0.900304 -0.281843
v 0.090010 0.036095 -0.636759
v 0.095174 0.197526 -0.636759
v 0.106368 0.239781 -0.513444
v 0.097859 0.036095 -0.513444
v 0.097901 0.239781 -0.369342
v 0.097901 0.239781 -0.491318
v 0.093822 0.036095 -0.491318
v 0.093822 0.036095 -0.369342
v 0.098055 0.036095 -0.352778
v 0.102135 0.239781 -0.352778
v 0.102135 0.239781 -0.232540
v 0.098055 0.036095 -0.232540
v 0.099126 0.036095 -0.086540
v 0.103205 0.197526 -0.086540
v 0.103205 0.239781 -0.213835
v 0.099126 0.036095 -0.213835
v -1.238991 0.829278 0.000000
v 2.082481 1.664900 0.000000
v 2.181718 1.415659 0.000000
v 2.058768 1.189599 0.000000
v 1.847501 1.740712 0.000000
v 1.661320 1.673124 -0.181524
v 1.612932 1.659451 0.000000
v 1.422019 1.585291 0.000000
v 1.599216 0.785964 0.000000
v -0.397498 3.068779 -0.133212
v -0.579628 2.882217 -0.064641
v 1.821166 1.076480 0.000000
v 1.797351 1.725971 -0.176835
v 1.749199 1.160649 -0.214078
v 1.993178 1.406344 -0.304332
v 1.918654 1.676083 -0.227394
v 1.773631 1.402796 -0.283453
v 1.748895 1.606645 -0.263072
v 1.951855 1.210868 -0.191950
v 1.200328 1.530058 -0.374100
v 1.216508 1.632372 0.000000
v -0.914301 1.549376 -0.531717
v 0.737289 1.196342 -0.639815
v 0.185527 1.297460 -0.683556
v -0.315466 1.402874 -0.663057
v 1.425805 0.305479 0.000000
v 1.554312 1.028012 -0.441196
v -1.431624 2.508156 -0.279076
v -1.681143 2.486125 0.000000
v -0.860830 0.043022 -0.145820
v -0.857978 0.043022 -0.635017
v 0.362441 0.036095 -0.623262
v 0.297247 0.159879 -0.080042
v 0.316831 0.187113 -0.643822
v 0.245373 0.298922 -0.639637
v 0.345143 0.036095 -0.097882
v 0.578403 0.036095 -0.605088
v 0.311411 0.036095 -0.357687
v 0.586573 0.036095 -0.356464
vt 0.375000 0.875000
vt 0.375000 0.875000
vt 0.375000 0.799795
vt 0.375000 0.780866
vt 0.375000 0.734036
vt 0.478758 0.801943
vt 0.590532 0.993068
vt 0.375000 0.717929
vt 0.375000 0.842783
vt 0.375000 0.768956
vt 0.375000 0.775207
vt 0.374527 0.755775
vt 0.257200 0.365279
vt 0.185150 0.315281
vt 0.000000 0.000000
vt 0.375000 0.750000
vt 0.375000 0.750000
vt 0.375000 0.750000
vt 0.375000 0.750000
vt 0.375000 0.625142
vt 0.375000 0.625142
vt 0.375000 0.625142
vt 0.375000 0.745366
vt 0.753733 0.623288
vt 0.764498 0.663674
vt 0.756761 0.657308
vt 0.763280 0.619811
vt 0.375000 0.625142
vt 0.375290 0.625614
vt 0.375705 0.626288
vt 0.375271 0.625582
vt 0.125000 0.750000
vt 0.207175 0.832011
vt 0.277328 0.612256
vt 0.000000 0.000000
vt 0.344134 0.683121
vt 0.344134 0.709970
vt 0.317525 0.709970
vt 0.317525 0.683121
vt 0.255562 0.463277
vt 0.375000 0.681141
vt 0.375000 0.743726
vt 0.375000 0.747077
vt 0.693221 0.660042
vt 0.684468 0.617408
vt 0.375772 0.722406
vt 0.382352 0.637096
vt 0.312881 0.289321
vt 0.320995 0.500000
vt 0.625000 0.688902
vt 0.682338 0.700446
vt 0.682475 0.750000
vt 0.625000 0.750000
vt 0.172708 0.712266
vt 0.197983 0.741100
vt 0.186090 0.741100
vt 0.172668 0.741100
vt 0.627749 0.662859
vt 0.689658 0.673271
vt 0.625000 0.660023
vt 0.500000 0.279730
vt 0.443157 0.439963
vt 0.458480 0.790506
vt 0.301560 0.471170
vt 0.372646 0.409892
vt 0.622003 0.807475
vt 0.624978 0.750250
vt 0.625000 0.750000
vt 0.625000 0.807475
vt 0.581445 0.807475
vt 0.596226 0.750000
vt 0.591372 0.904220
vt 0.625000 0.875000
vt 0.322428 0.748739
vt 0.318940 0.749636
vt 0.317525 0.741100
vt 0.344134 0.741101
vt 0.375000 0.748005
vt 0.311459 0.636839
vt 0.337258 0.607834
vt 0.468650 0.750000
vt 0.500000 0.807475
vt 0.375000 0.673748
vt 0.375000 0.700628
vt 0.877404 0.624360
vt 0.786376 0.703958
vt 0.210034 0.625142
vt 0.208742 0.625143
vt 0.196124 0.625143
vt 0.192479 0.625142
vt 0.317525 0.713406
vt 0.317525 0.676168
vt 0.172668 0.741101
vt 0.186090 0.741100
vt 0.317525 0.625143
vt 0.191220 0.583923
vt 0.116885 0.429160
vt 0.317525 0.743457
vt 0.375000 0.827928
vt 0.375000 0.906698
vt 0.375000 0.913093
vt 0.375000 0.833419
vt 0.317525 0.750000
vt 0.599056 0.632741
vt 0.375000 0.725627
vt 0.191080 0.667937
vt 0.221422 0.678622
vt 0.477044 0.750000
vt 0.480836 0.755967
vt 0.000000 0.000000
vt 0.500000 0.625142
vt 0.375000 0.742760
vt 0.375000 0.748249
vt 0.375000 0.741087
vt 0.375000 0.688949
vt 0.375000 0.683122
vt 0.375000 0.710650
vt 0.375000 0.709970
vt 0.375000 0.625143
vt 0.182857 0.709970
vt 0.191885 0.709970
vt 0.288024 0.631113
vt 0.290804 0.625143
vt 0.375288 0.728680
vt 0.750000 0.750000
vt 0.750000 0.750000
vt 0.750000 0.690185
vt 0.625000 0.807475
vt 0.516229 0.626387
vt 0.375111 0.730982
vt 0.375000 0.732417
vt 0.375000 0.625143
vt 0.750000 0.750000
vt 0.750000 0.691223
vt 0.623545 0.622986
vt 0.561056 0.400845
vt -0.012384 -0.004317
vt 0.375000 0.625142
vt 0.375000 0.625142
vt 0.299784 0.750000
vt 0.474388 0.750000
vt 0.375000 0.932093
vt 0.375000 0.932093
vt 0.375000 0.625142
vt 0.256420 0.654874
vt 0.375000 0.731075
vt 0.374907 0.734635
vt 0.178991 0.684570
vt 0.172668 0.709970
vt 0.182857 0.709970
vt 0.716065 0.732314
vt 0.375000 0.625142
vt 0.288161 0.742386
vt 0.286663 0.713734
vt 0.288452 0.682559
vt 0.199170 0.683937
vt 0.186719 0.683554
vt 0.291581 0.750000
vt 0.186719 0.683554
vt 0.195763 0.289366
vt 0.375000 0.807475
vt 0.172632 0.683371
vt 0.172632 0.683371
vt 0.172668 0.709970
vt 0.172668 0.750606
vt 0.192907 0.750000
vt 0.172691 0.734986
vt 0.211907 0.750000
vt 0.500000 0.500000
vt 0.625000 0.875000
vt 0.625000 0.875000
vt 0.483455 0.760089
vt 0.051451 0.085773
vt 0.000000 0.000000
vt 0.375000 0.625142
vt 0.375000 0.683121
vt 0.375000 0.709970
vt 0.375000 0.709970
vt 0.375000 0.733804
vt 0.000000 0.000000
vt 0.375000 0.733804
vt 0.158971 0.318029
vt 0.375000 0.750000
vt 0.375000 0.750000
vt 0.375000 0.750000
vt 0.375000 0.750000
vt 0.000000 0.000000
vt 0.000000 0.000000
vt 0.004540 0.008565
vt 0.021604 0.043336
vt 0.000000 0.000000
vt 0.000000 0.000000
vt 0.375000 0.683121
vt 0.375000 0.625142
vt 0.000000 0.000000
vt 0.125000 0.500000
vt 0.218019 0.750000
vt 0.231330 0.500000
vt 0.280965 0.422248
vt 0.367742 0.122447
vt -0.087654 -0.067363
vt 0.375000 0.746432
vt 0.021566 0.035432
vt 0.375000 0.875000
vt 0.375000 0.780866
vt 0.375000 0.799795
vt 0.375000 0.875000
vt 0.375000 0.734036
vt 0.375000 0.717929
vt 0.375000 0.842783
vt 0.374527 0.755775
vt 0.375000 0.775207
vt 0.375000 0.768956
vt 0.000000 0.000000
vt 0.185150 0.315281
vt 0.257200 0.365279
vt 0.375000 0.750000
vt 0.375000 0.750000
vt 0.375000 0.750000
vt 0.375000 0.750000
vt 0.375000 0.625142
vt 0.375000 0.625142
vt 0.375000 0.625142
vt 0.375000 0.745366
vt 0.756761 0.657308
vt 0.764498 0.663674
vt 0.375000 0.625142
vt 0.375271 0.625582
vt 0.125000 0.750000
vt 0.207175 0.832011
vt 0.344134 0.683121
vt 0.317525 0.683121
vt 0.317525 0.709970
vt 0.344134 0.709970
vt 0.255562 0.463277
vt 0.375000 0.747077
vt 0.375000 0.743726
vt 0.375000 0.681141
vt 0.693221 0.660042
vt 0.375772 0.722406
vt 0.312881 0.289321
vt 0.320995 0.500000
vt 0.625000 0.688902
vt 0.625000 0.750000
vt 0.682475 0.750000
vt 0.682338 0.700446
vt 0.172708 0.712266
vt 0.172668 0.741100
vt 0.186090 0.741100
vt 0.197983 0.741100
vt 0.627749 0.662859
vt 0.625000 0.660023
vt 0.689658 0.673271
vt 0.372646 0.409892
vt 0.301560 0.471170
vt 0.458480 0.790506
vt 0.622003 0.807475
vt 0.625000 0.807475
vt 0.625000 0.750000
vt 0.624978 0.750250
vt 0.581445 0.807475
vt 0.596226 0.750000
vt 0.591372 0.904220
vt 0.625000 0.875000
vt 0.322428 0.748739
vt 0.344134 0.741101
vt 0.317525 0.741100
vt 0.318940 0.749636
vt 0.375000 0.748005
vt 0.311459 0.636839
vt 0.468650 0.750000
vt 0.500000 0.807475
vt 0.375000 0.700628
vt 0.375000 0.673748
vt 0.786376 0.703958
vt 0.210034 0.625142
vt 0.192479 0.625142
vt 0.196124 0.625143
vt 0.208742 0.625143
vt 0.317525 0.676168
vt 0.317525 0.713406
vt 0.186090 0.741100
vt 0.172668 0.741101
vt 0.317525 0.625143
vt 0.191220 0.583923
vt 0.317525 0.743457
vt 0.375000 0.827928
vt 0.375000 0.833419
vt 0.375000 0.913093
vt 0.375000 0.906698
vt 0.317525 0.750000
vt 0.375000 0.725627
vt 0.221422 0.678622
vt 0.191080 0.667937
vt 0.477044 0.750000
vt 0.480836 0.755967
vt 0.375000 0.742760
vt 0.375000 0.741087
vt 0.375000 0.748249
vt 0.375000 0.688949
vt 0.375000 0.683122
vt 0.375000 0.710650
vt 0.375000 0.709970
vt 0.191885 0.709970
vt 0.182857 0.709970
vt 0.290804 0.625143
vt 0.288024 0.631113
vt 0.375288 0.728680
vt 0.750000 0.750000
vt 0.750000 0.690185
vt 0.750000 0.750000
vt 0.625000 0.807475
vt 0.375111 0.730982
vt 0.375000 0.625143
vt 0.375000 0.732417
vt 0.750000 0.691223
vt 0.750000 0.750000
vt 0.623545 0.622986
vt 0.375000 0.625142
vt 0.375000 0.625142
vt 0.299784 0.750000
vt 0.375000 0.932093
vt 0.375000 0.932093
vt 0.256420 0.654874
vt 0.375000 0.731075
vt 0.374907 0.734635
vt 0.182857 0.709970
vt 0.172668 0.709970
vt 0.178991 0.684570
vt 0.716065 0.732314
vt 0.375000 0.625142
vt 0.286663 0.713734
vt 0.288161 0.742386
vt 0.288452 0.682559
vt 0.199170 0.683937
vt 0.186719 0.683554
vt 0.291581 0.750000
vt 0.186719 0.683554
vt 0.195763 0.289366
vt 0.375000 0.807475
vt 0.172632 0.683371
vt 0.172632 0.683371
vt 0.172668 0.709970
vt 0.172668 0.750606
vt 0.192907 0.750000
vt 0.172691 0.734986
vt 0.211907 0.750000
vt 0.625000 0.875000
vt 0.625000 0.875000
vt 0.483455 0.760089
vt 0.375000 0.625142
vt 0.000000 0.000000
vt 0.051451 0.085773
vt 0.375000 0.709970
vt 0.375000 0.683121
vt 0.375000 0.733804
vt 0.375000 0.709970
vt 0.000000 0.000000
vt 0.158971 0.318029
vt 0.375000 0.733804
vt 0.375000 0.750000
vt 0.375000 0.750000
vt 0.375000 0.750000
vt 0.375000 0.750000
vt 0.000000 0.000000
vt 0.000000 0.000000
vt 0.004540 0.008565
vt 0.021604 0.043336
vt 0.000000 0.000000
vt 0.000000 0.000000
vt 0.375000 0.625142
vt 0.375000 0.683121
vt 0.125000 0.500000
vt 0.231330 0.500000
vt 0.218019 0.750000
vt 0.280965 0.422248
vt 0.375000 0.746432
vt 0.021566 0.035432
vn -0.3551 -0.1222 0.9268
vn -0.3780 0.2340 0.8957
vn 0.3507 -0.1523 0.9240
vn 0.0781 -0.4393 0.8949
vn 0.7305 0.2055 0.6512
vn 0.9991 -0.0429 0.0000
vn 0.8549 -0.5187 0.0000
vn 0.7259 -0.0597 0.6851
vn -0.3277 -0.1187 0.9373
vn -0.0762 -0.0566 0.9955
vn -0.0635 0.1296 0.9895
vn -0.3620 -0.0370 0.9314
vn 0.1488 -0.5885 0.7946
vn -0.1019 -0.0321 0.9943
vn 0.1784 0.5317 0.8279
vn 0.0635 0.1839 0.9809
vn -0.0320 0.0218 0.9992
vn 0.0772 0.0827 0.9936
vn 0.1832 0.2360 0.9543
vn -0.4896 0.5789 -0.6520
vn -0.0428 -0.2041 -0.9780
vn -0.2282 0.3972 -0.8889
vn -0.2152 -0.1313 0.9677
vn -0.2922 0.9563 0.0000
vn -0.3176 0.7830 0.5348
vn -0.2985 0.9525 -0.0592
vn 0.1896 0.9818 0.0000
vn 0.0446 -0.5907 -0.8057
vn 0.1107 -0.9938 0.0000
vn 0.7734 -0.6338 0.0000
vn 0.3688 -0.8247 -0.4288
vn -0.4235 0.7076 0.5655
vn -0.0862 0.9148 0.3946
vn 0.0402 0.9992 0.0000
vn -0.5398 0.8417 0.0000
vn 0.3357 -0.9347 -0.1166
vn 0.5278 -0.8454 -0.0821
vn 0.9279 -0.3674 -0.0628
vn 0.9187 -0.3572 -0.1685
vn 0.0000 -1.0000 0.0000
vn -0.0012 -0.8174 0.5760
vn 0.0040 -0.7851 0.6193
vn 0.2357 0.5032 -0.8314
vn 0.6015 0.7988 0.0000
vn 0.8281 -0.0360 0.5594
vn 0.9819 -0.1895 0.0000
vn 0.4358 -0.6319 0.6409
vn 0.4935 -0.0679 0.8671
vn 0.8172 0.3535 -0.4552
vn 0.3451 0.8471 -0.4040
vn 0.1625 0.4766 0.8639
vn 0.7781 0.3690 0.5083
vn -0.4031 0.9148 -0.0245
vn -0.0970 -0.9953 -0.0040
vn -0.5693 -0.6766 -0.4670
vn -0.6893 0.5454 -0.4767
vn 0.6731 -0.0975 -0.7330
vn 0.0318 0.3277 -0.9442
vn 0.6382 -0.1999 -0.7435
vn 0.7039 -0.7102 0.0000
vn 0.3609 -0.9326 0.0000
vn -0.2772 0.0977 0.9558
vn -0.5997 -0.0130 0.8001
vn -0.6815 -0.1833 0.7085
vn -0.0242 0.2052 0.9784
vn 0.6404 -0.1592 0.7513
vn 0.5119 -0.1802 0.8399
vn -0.0347 -0.0058 0.9994
vn -0.0136 0.2262 0.9740
vn 0.7436 0.1650 0.6478
vn -0.2354 0.3457 0.9083
vn -0.3970 0.4884 0.7771
vn 0.8964 -0.4017 0.1870
vn 0.3571 -0.9235 0.1404
vn 0.0663 -0.1135 0.9913
vn 0.4194 -0.4926 -0.7625
vn 0.2191 -0.9757 0.0000
vn 0.2656 0.4433 0.8561
vn -0.0281 0.1794 0.9833
vn -0.9957 -0.0275 0.0883
vn -0.9955 -0.0238 -0.0920
vn -0.7063 0.7079 0.0000
vn -0.4198 0.6906 0.5889
vn -0.2932 0.2825 -0.9133
vn 0.0799 -0.7301 -0.6786
vn -0.5262 -0.6572 -0.5397
vn -0.5924 0.5842 -0.5547
vn 0.5329 -0.8461 -0.0087
vn 0.5638 -0.8144 -0.1372
vn -0.6536 0.5969 0.4653
vn -0.5587 -0.6860 0.4660
vn 0.5017 -0.6648 -0.5534
vn -0.3372 -0.3977 -0.8533
vn -0.7175 -0.6965 0.0000
vn 0.5622 -0.8151 0.1398
vn 0.0056 0.0906 0.9958
vn -0.3542 0.4046 0.8431
vn -0.0333 -0.6810 0.7316
vn 0.0204 -0.7188 0.6949
vn 0.4154 -0.6132 0.6718
vn 0.9736 0.2281 0.0000
vn -0.9996 -0.0249 0.0127
vn -0.5513 0.8339 -0.0256
vn -0.9674 0.1599 0.1964
vn 0.2695 0.6279 0.7301
vn 0.4374 0.6235 0.6480
vn 0.4523 0.8918 0.0000
vn 0.3275 0.9448 0.0000
vn 0.0729 -0.4103 0.9090
vn -0.0519 -0.1237 0.9909
vn 0.0764 -0.8538 0.5148
vn -0.5228 0.8522 -0.0205
vn -0.4860 0.8676 -0.1048
vn -0.4889 0.8723 0.0009
vn -0.4303 0.9026 0.0009
vn -0.4622 -0.8868 0.0000
vn -0.5365 -0.6751 -0.5064
vn 0.0031 -1.0000 0.0001
vn 0.0988 -0.3154 -0.9438
vn 0.0654 -0.7908 -0.6085
vn 0.7165 -0.4353 0.5451
vn -0.3082 0.3487 0.8851
vn -0.5263 0.7683 -0.3641
vn 0.6104 0.7921 0.0000
vn 0.4122 -0.7395 0.5322
vn 0.2312 -0.9347 0.2699
vn 0.2238 -0.9615 -0.1590
vn 0.1784 0.4788 0.8596
vn -0.1138 0.9536 -0.2788
vn -0.5232 0.2921 0.8006
vn -0.9604 0.2787 0.0000
vn -0.9981 -0.0613 0.0000
vn 0.0003 -0.8324 -0.5541
vn 0.0032 -0.7103 -0.7039
vn 0.3483 0.6469 0.6783
vn 0.7499 0.6616 0.0000
vn -0.6844 0.5366 0.4935
vn -0.5528 -0.6677 0.4985
vn -0.4040 -0.9147 0.0000
vn -0.7500 -0.3937 0.5314
vn -0.5201 0.8538 0.0242
vn -0.4942 0.8626 0.1077
vn -0.3174 0.9483 0.0001
vn -0.6258 0.5886 0.5118
vn -0.5362 -0.6749 0.5069
vn 0.0323 -0.9138 -0.4049
vn 0.0466 -0.9989 0.0046
vn -0.5339 -0.6616 0.5265
vn -0.5242 -0.6695 -0.5263
vn -0.6836 -0.4009 0.6099
vn -0.6121 0.5851 0.5319
vn -0.6107 0.5847 -0.5340
vn -0.6261 0.5887 -0.5112
vn 0.9993 -0.0363 0.0000
vn -0.0317 -0.9995 -0.0000
vn -0.6040 -0.5769 0.5498
vn -0.5840 -0.5711 -0.5769
vn -0.5861 0.5927 -0.5524
vn -0.5821 0.5906 0.5589
vn -0.5886 0.5925 -0.5500
vn -0.5880 0.5930 0.5500
vn -0.5907 -0.5766 -0.5645
vn -0.5431 0.7028 -0.4595
vn -0.0365 -0.9993 0.0002
vn -0.6094 -0.5646 0.5566
vn -0.6060 0.4857 0.6299
vn -0.2080 0.3999 0.8926
vn 0.0064 -0.7101 0.7040
vn -0.6042 -0.5770 -0.5494
vn -0.6035 -0.5778 0.5494
vn -0.0288 -0.9996 0.0003
vn -0.5978 -0.5753 0.5582
vn -0.6020 -0.5769 -0.5520
vn -0.5686 0.6862 0.4537
vn -0.5820 0.4851 -0.6527
vn -0.0400 0.9992 0.0000
vn -0.1877 0.3405 0.9213
vn -0.9590 -0.2832 0.0000
vn -0.8391 -0.5439 0.0000
vn -0.4766 0.6265 0.6167
vn -0.3551 -0.1222 -0.9268
vn 0.0781 -0.4393 -0.8949
vn 0.3507 -0.1523 -0.9240
vn -0.3780 0.2340 -0.8957
vn 0.7305 0.2055 -0.6512
vn 0.7259 -0.0597 -0.6851
vn -0.3277 -0.1187 -0.9373
vn -0.3620 -0.0370 -0.9314
vn -0.0635 0.1296 -0.9895
vn -0.0762 -0.0566 -0.9955
vn 0.1784 0.5317 -0.8279
vn -0.1019 -0.0321 -0.9943
vn 0.1488 -0.5885 -0.7946
vn 0.0635 0.1839 -0.9809
vn 0.1832 0.2360 -0.9543
vn 0.0772 0.0827 -0.9936
vn -0.0320 0.0218 -0.9992
vn -0.4896 0.5789 0.6520
vn -0.2282 0.3972 0.8889
vn -0.0428 -0.2041 0.9780
vn -0.2152 -0.1313 -0.9677
vn -0.2985 0.9525 0.0592
vn -0.3176 0.7830 -0.5348
vn 0.0446 -0.5907 0.8057
vn 0.3688 -0.8247 0.4288
vn -0.4235 0.7076 -0.5655
vn -0.0862 0.9148 -0.3946
vn 0.3357 -0.9347 0.1166
vn 0.9187 -0.3572 0.1685
vn 0.9279 -0.3674 0.0628
vn 0.5278 -0.8454 0.0821
vn 0.0040 -0.7851 -0.6193
vn -0.0012 -0.8174 -0.5760
vn 0.2357 0.5032 0.8314
vn 0.8281 -0.0360 -0.5594
vn 0.4358 -0.6319 -0.6409
vn 0.4935 -0.0679 -0.8671
vn 0.8172 0.3535 0.4552
vn 0.7781 0.3690 -0.5083
vn 0.1625 0.4766 -0.8639
vn 0.3451 0.8471 0.4040
vn -0.4031 0.9148 0.0245
vn -0.6893 0.5454 0.4767
vn -0.5693 -0.6766 0.4670
vn -0.0970 -0.9953 0.0040
vn 0.6731 -0.0975 0.7330
vn 0.6382 -0.1999 0.7435
vn 0.0318 0.3277 0.9442
vn -0.6815 -0.1833 -0.7085
vn -0.5997 -0.0130 -0.8001
vn -0.2772 0.0977 -0.9558
vn -0.0242 0.2052 -0.9784
vn -0.0347 -0.0058 -0.9994
vn 0.5119 -0.1802 -0.8399
vn 0.6404 -0.1592 -0.7513
vn -0.0136 0.2262 -0.9740
vn 0.7436 0.1650 -0.6478
vn -0.2354 0.3457 -0.9083
vn -0.3970 0.4884 -0.7771
vn 0.3571 -0.9235 -0.1404
vn 0.8964 -0.4017 -0.1870
vn 0.0663 -0.1135 -0.9913
vn 0.4194 -0.4926 0.7625
vn 0.2656 0.4433 -0.8561
vn -0.0281 0.1794 -0.9833
vn -0.9955 -0.0238 0.0920
vn -0.9957 -0.0275 -0.0883
vn -0.4198 0.6906 -0.5889
vn -0.2932 0.2825 0.9133
vn -0.5924 0.5842 0.5547
vn -0.5262 -0.6572 0.5397
vn 0.0799 -0.7301 0.6786
vn 0.5638 -0.8144 0.1372
vn 0.5329 -0.8461 0.0087
vn -0.5587 -0.6860 -0.4660
vn -0.6536 0.5969 -0.4653
vn 0.5017 -0.6648 0.5534
vn -0.3372 -0.3977 0.8533
vn 0.5622 -0.8151 -0.1398
vn 0.0056 0.0906 -0.9958
vn 0.0204 -0.7188 -0.6949
vn -0.0333 -0.6810 -0.7316
vn -0.3542 0.4046 -0.8431
vn 0.4154 -0.6132 -0.6718
vn -0.9996 -0.0249 -0.0127
vn -0.9674 0.1599 -0.1964
vn -0.5513 0.8339 0.0256
vn 0.2695 0.6279 -0.7301
vn 0.4374 0.6235 -0.6480
vn 0.0729 -0.4103 -0.9090
vn 0.0764 -0.8538 -0.5148
vn -0.0519 -0.1237 -0.9909
vn -0.5228 0.8522 0.0205
vn -0.4860 0.8676 0.1048
vn -0.4889 0.8723 -0.0009
vn -0.4303 0.9026 -0.0009
vn 0.0031 -1.0000 -0.0001
vn -0.5365 -0.6751 0.5064
vn 0.0654 -0.7908 0.6085
vn 0.0988 -0.3154 0.9438
vn 0.7165 -0.4353 -0.5451
vn -0.5263 0.7683 0.3641
vn -0.3082 0.3487 -0.8851
vn 0.4122 -0.7395 -0.5322
vn 0.2238 -0.9615 0.1590
vn 0.2312 -0.9347 -0.2699
vn -0.1138 0.9536 0.2788
vn 0.1784 0.4788 -0.8596
vn -0.5232 0.2921 -0.8006
vn 0.0032 -0.7103 0.7039
vn 0.0003 -0.8324 0.5541
vn 0.3483 0.6469 -0.6783
vn -0.5528 -0.6677 -0.4985
vn -0.6844 0.5366 -0.4935
vn -0.7500 -0.3937 -0.5314
vn -0.5201 0.8538 -0.0242
vn -0.4942 0.8626 -0.1077
vn -0.5362 -0.6749 -0.5069
vn -0.6258 0.5886 -0.5118
vn -0.3174 0.9483 -0.0001
vn 0.0323 -0.9138 0.4049
vn 0.0466 -0.9989 -0.0046
vn -0.5339 -0.6616 -0.5265
vn -0.5242 -0.6695 0.5263
vn -0.6836 -0.4009 -0.6099
vn -0.6121 0.5851 -0.5319
vn -0.6107 0.5847 0.5340
vn -0.6261 0.5887 0.5112
vn -0.5840 -0.5711 0.5769
vn -0.6040 -0.5769 -0.5498
vn -0.5821 0.5906 -0.5589
vn -0.5861 0.5927 0.5524
vn -0.5880 0.5930 -0.5500
vn -0.5886 0.5925 0.5500
vn -0.5907 -0.5766 0.5645
vn -0.0365 -0.9993 -0.0002
vn -0.5431 0.7028 0.4595
vn -0.6094 -0.5646 -0.5566
vn -0.6060 0.4857 -0.6299
vn -0.2080 0.3999 -0.8926
vn 0.0064 -0.7101 -0.7040
vn -0.6035 -0.5778 -0.5494
vn -0.6042 -0.5770 0.5494
vn -0.0288 -0.9996 -0.0003
vn -0.5978 -0.5753 -0.5582
vn -0.6020 -0.5769 0.5520
vn -0.5820 0.4851 0.6527
vn -0.5686 0.6862 -0.4537
vn -0.1877 0.3405 -0.9213
vn -0.4766 0.6265 -0.6167
usemtl None
s 1
f 5/1/1 63/2/2 66/3/3 17/4/4
f 145/5/5 310/6/6 167/7/7 9/8/8
f 112/9/9 59/10/10 144/11/11 141/12/12
f 9/8/8 134/13/13 137/14/14 6/15/15
f 143/16/16 57/17/17 60/18/18 142/19/19
f 39/20/20 150/21/21 85/22/22
f 17/4/4 29/23/23 57/17/17 59/10/10
f 162/24/24 55/25/25 50/26/26 178/27/27
f 43/28/28 240/29/29 327/30/30 8/31/31
f 130/32/32 133/33/33 306/34/34 308/35/35
f 49/36/36 70/37/37 76/38/38 67/39/39
f 155/40/40 156/41/40 154/42/41 149/43/42
f 50/26/26 132/44/43 184/45/44 178/27/27
f 145/5/5 54/46/45 232/47/46 310/6/6
f 139/48/47 135/49/48 137/14/14 134/13/13
f 36/50/49 34/51/50 53/52/51 20/53/52
f 28/54/53 94/55/54 110/56/55 111/57/56
f 31/58/57 132/44/43 131/59/58 32/60/59
f 142/19/19 60/18/18 54/46/45 145/5/5
f 305/61/60 139/48/47 134/13/13 313/62/61
f 141/12/12 4/63/62 62/64/63 58/65/64
f 21/66/65 13/67/66 11/68/67 19/69/68
f 15/70/69 1/71/70 13/67/66 21/66/65
f 2/72/71 15/70/69 21/66/65 14/73/72
f 17/74/4 66/75/3 65/76/73 18/77/74
f 57/17/17 29/23/23 33/78/75 60/18/18
f 49/36/36 67/39/39 64/79/76 182/80/77
f 3/81/78 1/71/70 15/70/69 16/82/79
f 49/36/36 44/83/80 74/84/81 70/37/37
f 162/24/24 159/85/82 61/86/83 55/25/25
f 26/87/84 147/88/85 47/89/86 72/90/87
f 67/39/39 76/38/38 101/91/88 96/92/89
f 11/68/67 13/67/66 31/58/57 32/60/59
f 94/55/54 28/54/53 105/93/90 104/94/91
f 64/79/76 67/39/39 96/92/89 99/95/92
f 182/80/77 64/79/76 69/96/93 188/97/94
f 76/38/38 65/76/73 89/98/95 101/91/88
f 23/99/96 27/100/97 148/101/98 92/102/99
f 65/76/73 66/75/3 100/103/100 89/98/95
f 132/44/43 31/58/57 160/104/101 184/45/44
f 18/77/74 30/105/102 29/23/23 17/74/4
f 69/96/93 26/87/84 45/106/103 68/107/104
f 10/108/105 140/109/106 322/110/107 173/111/108
f 74/84/81 30/105/102 18/77/74 70/37/37
f 42/112/109 151/113/110 149/43/42 154/42/41 81/114/111
f 38/115/112 39/20/20 85/22/22 41/116/113
f 75/117/114 38/115/112 41/116/113 83/118/115
f 44/83/80 196/119/116 39/20/20 38/115/112
f 74/84/81 44/83/80 38/115/112 75/117/114
f 94/55/54 104/94/91 107/120/117 95/121/118
f 26/87/84 24/122/119 91/123/120 147/88/85
f 66/3/3 63/2/2 27/100/97 23/99/96
f 31/58/57 13/67/66 1/71/70 160/104/101
f 327/30/30 232/47/46 54/46/45 56/124/121
f 14/125/72 12/126/122 51/127/123 50/26/26
f 19/69/68 11/68/67 20/53/52 53/128/51
f 197/129/124 3/81/78 10/108/105 173/111/108
f 7/130/125 78/131/126 77/132/127 8/31/31
f 7/130/125 42/112/109 81/114/111 78/131/126
f 12/126/122 52/133/128 35/134/129 51/127/123
f 62/64/63 146/135/130 330/136/131 164/137/132
f 142/19/19 145/5/5 140/109/106 10/108/105
f 85/22/22 150/21/21 153/138/133 86/139/134
f 306/34/34 133/33/33 136/140/135 303/141/136
f 52/133/128 53/52/51 34/51/50 35/134/129
f 27/100/97 108/142/137 109/143/138 148/101/98
f 24/122/119 26/87/84 69/96/93 64/79/76
f 240/29/29 43/28/28 150/21/21 39/20/20 241/144/139
f 241/144/139 39/20/20 196/119/116
f 5/1/1 48/145/140 68/107/104 63/2/2
f 30/105/102 74/84/81 75/117/114 40/146/141
f 40/146/141 75/117/114 83/118/115 82/147/142
f 24/122/119 64/79/76 99/95/92 91/123/120
f 95/121/118 73/148/143 22/149/144 102/150/145
f 55/25/25 2/151/71 14/125/72 50/26/26
f 156/41/40 155/40/40 153/138/133 79/152/146
f 16/82/79 15/70/69 2/72/71 4/63/62
f 56/124/121 33/78/75 42/112/109 7/130/125
f 43/28/28 8/31/31 77/132/127 79/152/146
f 101/91/88 89/98/95 90/153/40 93/154/40
f 99/95/92 96/92/89 97/155/40 91/123/120
f 98/156/147 46/157/148 47/89/86 147/88/85
f 89/98/95 100/103/100 92/158/99 90/153/40
f 95/121/118 102/150/145 103/159/149 98/156/147
f 112/9/9 113/160/150 48/145/140 5/1/1
f 96/92/89 101/91/88 93/154/40 97/155/40
f 66/3/3 23/99/96 92/102/99 100/161/100
f 71/162/151 72/90/87 47/89/86 46/157/148
f 45/106/103 26/87/84 72/90/87 71/162/151
f 98/156/147 45/106/103 71/162/151 46/157/148
f 22/149/144 25/163/152 103/159/149 102/150/145
f 73/148/143 45/106/103 25/163/152 22/149/144
f 45/106/103 98/156/147 103/159/149 25/163/152
f 105/93/90 106/164/153 107/120/117 104/94/91
f 73/148/143 95/121/118 107/120/117 106/164/153
f 28/54/53 73/148/143 106/164/153 105/93/90
f 108/165/137 111/57/56 110/56/55 109/166/138
f 27/167/97 28/54/53 111/57/56 108/165/137
f 98/156/147 97/155/40 93/154/40 95/121/118
f 94/55/54 90/153/40 92/158/99 148/168/98
f 95/121/118 93/154/40 90/153/40 94/55/54
f 147/88/85 91/123/120 97/155/40 98/156/147
f 188/97/94 69/96/93 68/107/104 48/145/140
f 143/16/16 142/19/19 10/108/105 3/81/78
f 305/61/60 304/169/154 135/49/48 139/48/47
f 160/104/101 1/71/70 3/81/78 197/129/124
f 141/12/12 144/11/11 16/82/79 4/63/62
f 12/170/122 19/69/68 53/128/51 52/171/128
f 59/10/10 112/9/9 5/1/1 17/4/4
f 145/5/5 9/8/8 6/172/15 140/109/106
f 86/139/134 88/173/155 129/174/156 126/175/157
f 83/118/115 41/116/113 124/176/158 123/177/159
f 82/147/142 83/118/115 118/178/160 119/179/161
f 117/180/162 116/181/163 82/147/142 84/182/164
f 114/183/165 115/184/166 116/181/163 117/180/162
f 37/185/167 82/147/142 116/181/163 115/184/166
f 80/186/168 37/185/167 115/184/166 114/183/165
f 118/178/160 121/187/169 120/188/170 119/179/161
f 83/118/115 87/189/171 121/187/169 118/178/160
f 84/190/164 82/147/142 119/179/161 120/188/170
f 87/189/171 84/190/164 120/188/170 121/187/169
f 122/191/172 123/177/159 124/176/158 125/192/173
f 88/173/155 87/189/171 122/191/172 125/192/173
f 41/116/113 88/173/155 125/192/173 124/176/158
f 87/189/171 83/118/115 123/177/159 122/191/172
f 126/175/157 129/174/156 128/193/174 127/194/175
f 85/22/22 86/139/134 126/175/157 127/194/175
f 41/116/113 85/22/22 127/194/175 128/193/174
f 88/173/155 41/116/113 128/193/174 129/174/156
f 141/12/12 58/65/64 113/160/150 112/9/9
f 27/100/97 45/106/103 73/148/143 28/54/53
f 57/17/17 143/16/16 144/11/11 59/10/10
f 130/32/32 308/35/35 309/195/176 6/196/15
f 135/49/48 136/140/135 138/197/177 137/198/14
f 304/169/154 303/141/136 136/140/135 135/49/48
f 136/140/135 133/33/33 130/32/32 138/197/177
f 117/180/162 84/182/164 80/186/168 114/183/165
f 51/127/123 131/59/58 132/44/43 50/26/26
f 16/82/79 144/11/11 143/16/16 3/81/78
f 11/68/67 32/60/59 36/50/49 20/53/52
f 309/195/176 322/110/107 140/109/106 6/172/15
f 32/60/59 131/59/58 34/51/50 36/50/49
f 167/7/7 313/62/61 134/199/13 9/8/8
f 14/73/72 21/66/65 19/69/68 12/170/122
f 34/51/50 131/59/58 51/127/123 35/134/129
f 137/198/14 138/197/177 130/32/32 6/196/15
f 164/137/132 158/200/178 58/65/64 62/64/63
f 2/151/71 146/135/130 62/64/63 4/63/62
f 188/97/94 48/145/140 113/160/150 302/201/179
f 61/86/83 146/135/130 2/151/71 55/25/25
f 330/136/131 146/135/130 61/86/83 159/85/82
f 94/55/54 148/168/98 109/166/138 110/56/55
f 63/2/2 68/107/104 45/106/103 27/100/97
f 182/80/77 196/119/116 44/83/80 49/36/36
f 327/30/30 56/124/121 7/130/125 8/31/31
f 302/201/179 113/160/150 58/65/64 158/200/178
f 155/40/40 149/43/42 80/186/168 84/190/164
f 151/113/110 37/185/167 80/186/168 149/43/42
f 40/146/141 82/147/142 37/185/167 152/202/180
f 29/23/23 151/113/110 42/112/109 33/78/75
f 152/202/180 29/23/23 30/105/102 40/146/141
f 153/138/133 150/21/21 43/28/28 79/152/146
f 60/18/18 33/78/75 56/124/121 54/46/45
f 152/202/180 37/185/167 151/113/110 29/23/23
f 88/173/155 86/139/134 153/138/133 155/40/40
f 78/131/126 81/114/111 79/152/146 77/132/127
f 154/42/41 156/41/40 79/152/146 81/114/111
f 84/190/164 87/203/171 88/173/155 155/40/40
f 18/77/74 65/76/73 76/38/38 70/37/37
f 166/204/181 181/205/182 236/206/183 233/207/184
f 328/208/185 171/209/186 167/7/7 310/6/6
f 284/210/187 323/211/188 326/212/189 228/213/190
f 171/209/186 168/214/191 318/215/192 315/216/193
f 325/217/194 324/218/195 229/219/196 226/220/197
f 208/221/198 257/222/199 334/223/200
f 181/205/182 228/213/190 226/220/197 198/224/201
f 162/24/24 178/27/27 219/225/202 224/226/203
f 212/227/204 170/228/205 327/30/30 240/29/29
f 307/229/206 308/35/35 306/34/34 314/230/207
f 218/231/208 237/232/209 248/233/210 242/234/211
f 339/235/40 333/236/212 338/237/213 340/238/40
f 219/225/202 178/27/27 184/45/44 312/239/214
f 328/208/185 310/6/6 232/47/46 223/240/215
f 320/241/216 315/216/193 318/215/192 316/242/217
f 205/243/218 186/244/219 222/245/220 203/246/221
f 195/247/222 283/248/223 282/249/224 266/250/225
f 200/251/226 201/252/227 311/253/228 312/239/214
f 324/218/195 328/208/185 223/240/215 229/219/196
f 305/61/60 313/62/61 315/216/193 320/241/216
f 323/211/188 227/254/229 231/255/230 165/256/231
f 187/257/232 185/258/233 174/259/234 176/260/235
f 179/261/236 187/257/232 176/260/235 157/262/237
f 161/263/238 177/264/239 187/257/232 179/261/236
f 181/265/182 183/266/240 235/267/241 236/268/183
f 226/220/197 229/219/196 202/269/242 198/224/201
f 218/231/208 182/80/77 234/270/243 237/232/209
f 163/271/244 180/272/245 179/261/236 157/262/237
f 218/231/208 242/234/211 246/273/246 213/274/247
f 162/24/24 224/226/203 230/275/248 159/85/82
f 193/276/249 244/277/250 216/278/251 331/279/252
f 237/232/209 268/280/253 273/281/254 248/233/210
f 174/259/234 201/252/227 200/251/226 176/260/235
f 266/250/225 276/282/255 277/283/256 195/247/222
f 234/270/243 271/284/257 268/280/253 237/232/209
f 182/80/77 188/97/94 239/285/258 234/270/243
f 248/233/210 273/281/254 261/286/259 235/267/241
f 190/287/260 264/288/261 332/289/262 194/290/263
f 235/267/241 261/286/259 272/291/264 236/268/183
f 312/239/214 184/45/44 160/104/101 200/251/226
f 183/266/240 181/265/182 198/224/201 199/292/265
f 239/285/258 238/293/266 214/294/267 193/276/249
f 172/295/268 173/111/108 322/110/107 321/296/269
f 246/273/246 242/234/211 183/266/240 199/292/265
f 211/297/270 253/298/271 338/237/213 333/236/212 335/299/272
f 207/300/273 210/301/274 257/222/199 208/221/198
f 247/302/275 255/303/276 210/301/274 207/300/273
f 213/274/247 207/300/273 208/221/198 196/119/116
f 246/273/246 247/302/275 207/300/273 213/274/247
f 266/250/225 267/304/277 279/305/278 276/282/255
f 193/276/249 331/279/252 263/306/279 191/307/280
f 236/206/183 190/287/260 194/290/263 233/207/184
f 200/251/226 160/104/101 157/262/237 176/260/235
f 327/30/30 225/308/281 223/240/215 232/47/46
f 177/309/239 219/225/202 220/310/282 175/311/283
f 185/258/233 222/312/220 186/244/219 174/259/234
f 197/129/124 173/111/108 172/295/268 163/271/244
f 169/313/284 170/228/205 249/314/285 250/315/286
f 169/313/284 250/315/286 253/298/271 211/297/270
f 175/311/283 220/310/282 204/316/287 221/317/288
f 231/255/230 164/137/132 330/136/131 329/318/289
f 324/218/195 172/295/268 321/296/269 328/208/185
f 257/222/199 258/319/290 337/320/291 334/223/200
f 306/34/34 303/141/136 317/321/292 314/230/207
f 221/317/288 204/316/287 203/246/221 222/245/220
f 194/290/263 332/289/262 281/322/293 280/323/294
f 191/307/280 234/270/243 239/285/258 193/276/249
f 240/29/29 241/144/139 208/221/198 334/223/200 212/227/204
f 241/144/139 196/119/116 208/221/198
f 166/204/181 233/207/184 238/293/266 217/324/295
f 199/292/265 209/325/296 247/302/275 246/273/246
f 209/325/296 254/326/297 255/303/276 247/302/275
f 191/307/280 263/306/279 271/284/257 234/270/243
f 267/304/277 274/327/298 189/328/299 245/329/300
f 224/226/203 219/225/202 177/309/239 161/330/238
f 340/238/40 251/331/301 337/320/291 339/235/40
f 180/272/245 165/256/231 161/263/238 179/261/236
f 225/308/281 169/313/284 211/297/270 202/269/242
f 212/227/204 251/331/301 249/314/285 170/228/205
f 273/281/254 265/332/40 262/333/40 261/286/259
f 271/284/257 263/306/279 269/334/40 268/280/253
f 270/335/302 331/279/252 216/278/251 215/336/303
f 261/286/259 262/333/40 264/337/261 272/291/264
f 267/304/277 270/335/302 275/338/304 274/327/298
f 284/210/187 166/204/181 217/324/295 285/339/305
f 268/280/253 269/334/40 265/332/40 273/281/254
f 236/206/183 272/340/264 264/288/261 190/287/260
f 243/341/306 215/336/303 216/278/251 244/277/250
f 214/294/267 243/341/306 244/277/250 193/276/249
f 270/335/302 215/336/303 243/341/306 214/294/267
f 189/328/299 274/327/298 275/338/304 192/342/307
f 245/329/300 189/328/299 192/342/307 214/294/267
f 214/294/267 192/342/307 275/338/304 270/335/302
f 277/283/256 276/282/255 279/305/278 278/343/308
f 245/329/300 278/343/308 279/305/278 267/304/277
f 195/247/222 277/283/256 278/343/308 245/329/300
f 280/344/294 281/345/293 282/249/224 283/248/223
f 194/346/263 280/344/294 283/248/223 195/247/222
f 270/335/302 267/304/277 265/332/40 269/334/40
f 266/250/225 332/347/262 264/337/261 262/333/40
f 267/304/277 266/250/225 262/333/40 265/332/40
f 331/279/252 270/335/302 269/334/40 263/306/279
f 188/97/94 217/324/295 238/293/266 239/285/258
f 325/217/194 163/271/244 172/295/268 324/218/195
f 305/61/60 320/241/216 316/242/217 304/169/154
f 160/104/101 197/129/124 163/271/244 157/262/237
f 323/211/188 165/256/231 180/272/245 326/212/189
f 175/348/283 221/349/288 222/312/220 185/258/233
f 228/213/190 181/205/182 166/204/181 284/210/187
f 328/208/185 321/296/269 168/350/191 171/209/186
f 258/319/290 298/351/309 301/352/310 260/353/155
f 255/303/276 295/354/311 296/355/312 210/301/274
f 254/326/297 291/356/313 290/357/314 255/303/276
f 289/358/315 256/359/316 254/326/297 288/360/317
f 286/361/318 289/358/315 288/360/317 287/362/319
f 206/363/320 287/362/319 288/360/317 254/326/297
f 252/364/321 286/361/318 287/362/319 206/363/320
f 290/357/314 291/356/313 292/365/322 293/366/323
f 255/303/276 290/357/314 293/366/323 259/367/324
f 256/368/316 292/365/322 291/356/313 254/326/297
f 259/367/324 293/366/323 292/365/322 256/368/316
f 294/369/325 297/370/326 296/355/312 295/354/311
f 260/353/155 297/370/326 294/369/325 259/367/324
f 210/301/274 296/355/312 297/370/326 260/353/155
f 259/367/324 294/369/325 295/354/311 255/303/276
f 298/351/309 299/371/327 300/372/328 301/352/310
f 257/222/199 299/371/327 298/351/309 258/319/290
f 210/301/274 300/372/328 299/371/327 257/222/199
f 260/353/155 301/352/310 300/372/328 210/301/274
f 323/211/188 284/210/187 285/339/305 227/254/229
f 194/290/263 195/247/222 245/329/300 214/294/267
f 226/220/197 228/213/190 326/212/189 325/217/194
f 307/229/206 168/373/191 309/195/176 308/35/35
f 316/242/217 318/374/192 319/375/329 317/321/292
f 304/169/154 316/242/217 317/321/292 303/141/136
f 317/321/292 319/375/329 307/229/206 314/230/207
f 289/358/315 286/361/318 252/364/321 256/359/316
f 220/310/282 219/225/202 312/239/214 311/253/228
f 180/272/245 163/271/244 325/217/194 326/212/189
f 174/259/234 186/244/219 205/243/218 201/252/227
f 309/195/176 168/350/191 321/296/269 322/110/107
f 201/252/227 205/243/218 203/246/221 311/253/228
f 167/7/7 171/209/186 315/376/193 313/62/61
f 177/264/239 175/348/283 185/258/233 187/257/232
f 203/246/221 204/316/287 220/310/282 311/253/228
f 318/374/192 168/373/191 307/229/206 319/375/329
f 164/137/132 231/255/230 227/254/229 158/200/178
f 161/330/238 165/256/231 231/255/230 329/318/289
f 188/97/94 302/201/179 285/339/305 217/324/295
f 230/275/248 224/226/203 161/330/238 329/318/289
f 330/136/131 159/85/82 230/275/248 329/318/289
f 266/250/225 282/249/224 281/345/293 332/347/262
f 233/207/184 194/290/263 214/294/267 238/293/266
f 182/80/77 218/231/208 213/274/247 196/119/116
f 327/30/30 170/228/205 169/313/284 225/308/281
f 302/201/179 158/200/178 227/254/229 285/339/305
f 339/235/40 256/368/316 252/364/321 333/236/212
f 335/299/272 333/236/212 252/364/321 206/363/320
f 209/325/296 336/377/330 206/363/320 254/326/297
f 198/224/201 202/269/242 211/297/270 335/299/272
f 336/377/330 209/325/296 199/292/265 198/224/201
f 337/320/291 251/331/301 212/227/204 334/223/200
f 229/219/196 223/240/215 225/308/281 202/269/242
f 336/377/330 198/224/201 335/299/272 206/363/320
f 260/353/155 339/235/40 337/320/291 258/319/290
f 250/315/286 249/314/285 251/331/301 253/298/271
f 338/237/213 253/298/271 251/331/301 340/238/40
f 256/368/316 339/235/40 260/353/155 259/378/324
f 183/266/240 242/234/211 248/233/210 235/267/241
